<svg width="18" height="4" viewBox="0 0 18 4" fill="none" xmlns="http://www.w3.org/2000/svg">
<path d="M1.5 0.987061C0.675 0.987061 0 1.66206 0 2.48706C0 3.31206 0.675 3.98706 1.5 3.98706C2.325 3.98706 3 3.31206 3 2.48706C3 1.66206 2.325 0.987061 1.5 0.987061ZM16.5 0.987061C15.675 0.987061 15 1.66206 15 2.48706C15 3.31206 15.675 3.98706 16.5 3.98706C17.325 3.98706 18 3.31206 18 2.48706C18 1.66206 17.325 0.987061 16.5 0.987061ZM9 0.987061C8.175 0.987061 7.5 1.66206 7.5 2.48706C7.5 3.31206 8.175 3.98706 9 3.98706C9.825 3.98706 10.5 3.31206 10.5 2.48706C10.5 1.66206 9.825 0.987061 9 0.987061Z" fill="#482200"/>
</svg>
